<svg xmlns="http://www.w3.org/2000/svg" version="1.1" xmlns:xlink="http://www.w3.org/1999/xlink" xmlns:svgjs="http://svgjs.dev/svgjs" width="128" height="128" viewBox="0 0 128 128"><g transform="matrix(0.8046875,0,0,0.8046875,12.760752631578946,21.888847740720372)"><svg viewBox="0 0 95 78" data-background-color="#ffffff" preserveAspectRatio="xMidYMid meet" height="105" width="128" xmlns="http://www.w3.org/2000/svg" xmlns:xlink="http://www.w3.org/1999/xlink"><g id="tight-bounds" transform="matrix(1,0,0,1,-0.24049999999999727,-0.12457289351384304)"><svg viewBox="0 0 95.481 78.24914578702766" height="78.24914578702766" width="95.481"><g><svg viewBox="0 0 95.481 78.24914578702766" height="78.24914578702766" width="95.481"><g><svg viewBox="0 0 95.481 78.24914578702766" height="78.24914578702766" width="95.481"><g><svg viewBox="0 0 95.481 78.24914578702766" height="78.24914578702766" width="95.481"><g><svg viewBox="0 0 95.481 78.24914578702766" height="78.24914578702766" width="95.481"><g><svg viewBox="0 0 95.481 78.24914578702766" height="78.24914578702766" width="95.481"><g><svg xmlns="http://www.w3.org/2000/svg" xmlns:xlink="http://www.w3.org/1999/xlink" version="1.1" x="0" y="0" viewBox="4.46 12.622999999999998 89.08200000000001 73.005" enable-background="new 0 0 100 100" xml:space="preserve" height="78.24914578702766" width="95.481" class="icon-icon-0" data-fill-palette-color="accent" id="icon-0"><path fill="#000000" d="M11.397 69.293v16.334h42.459V69.293H11.397zM24.458 82.123h-9.792v-9.14h9.792V82.123zM34.261 82.123h-6.535v-9.14h6.535V82.123zM47.321 82.123h-9.803v-9.14h9.803V82.123z" data-fill-palette-color="accent"></path><rect x="50.725" y="49.303" fill="#000000" width="3.132" height="17.947" data-fill-palette-color="accent"></rect><rect x="36.504" y="59.751" fill="#000000" width="12.098" height="2.614" data-fill-palette-color="accent"></rect><rect x="36.504" y="55.036" fill="#000000" width="12.098" height="2.565" data-fill-palette-color="accent"></rect><rect x="36.504" y="64.583" fill="#000000" width="12.098" height="2.667" data-fill-palette-color="accent"></rect><rect x="31.012" y="53.684" fill="#000000" width="3.23" height="13.566" data-fill-palette-color="accent"></rect><polygon fill="#000000" points="28.806,67.293 28.806,64.53 16.831,64.53 16.831,67.25 " data-fill-palette-color="accent"></polygon><rect x="11.397" y="60.377" fill="#000000" width="3.268" height="6.873" data-fill-palette-color="accent"></rect><path fill="#000000" d="M77.023 35.129l-6.949-22.506-5.941 22.506h-3.268-3.078l-0.943-1.427H11.999L4.46 41.664h56.405v6.549h3.268v29.705h-2.155l-4.853 7.71h29.102l-4.853-7.71h-4.17V48.212h3.267v-6.549h3.269v6.536h9.802v-13.07H77.023zM16.397 38.766h-5.301l2.172-2.171h5.297L16.397 38.766zM25.542 38.766h-5.301l2.172-2.171h5.298L25.542 38.766zM34.696 38.766h-5.301l2.173-2.171h5.298L34.696 38.766zM43.84 38.766h-5.301l2.173-2.171h5.298L43.84 38.766zM47.797 38.766l2.174-2.171h5.317l1.437 2.171H47.797zM70.259 21.438l1.652 5.35-4.083 3.849L70.259 21.438zM64.128 44.928V38.4h9.812v6.528H64.128zM73.936 48.695l-6.535 5.55v-5.55H73.936zM73.551 77.917H67.4v-1.058l6.535-6.154L73.551 77.917zM73.936 66.191l-6.535 6.15v-4.951l6.535-6.15V66.191zM73.936 57.145L67.4 63.293v-4.949l6.535-6.152V57.145zM67.409 35.129l5.483-5.169 1.594 5.169H67.409z" data-fill-palette-color="accent"></path></svg></g></svg></g></svg></g></svg></g></svg></g></svg></g><defs></defs></svg><rect width="95.481" height="78.24914578702766" fill="none" stroke="none" visibility="hidden"></rect></g></svg></g></svg>